<?xml version="1.0" standalone="no"?>
<!DOCTYPE svg PUBLIC "-//W3C//DTD SVG 20010904//EN"
 "http://www.w3.org/TR/2001/REC-SVG-20010904/DTD/svg10.dtd">
<svg version="1.0" xmlns="http://www.w3.org/2000/svg"
 width="256.000000pt" height="256.000000pt" viewBox="0 0 256.000000 256.000000"
 preserveAspectRatio="xMidYMid meet">

<g transform="translate(0.000000,256.000000) scale(0.100000,-0.100000)"
fill="#fff" stroke="none">
<path d="M1128 2483 c-71 -27 -135 -77 -170 -133 -29 -47 -33 -50 -74 -50
-156 0 -300 -101 -336 -235 l-11 -41 -71 1 c-126 0 -232 -69 -292 -191 -26
-53 -29 -69 -29 -159 0 -85 3 -106 23 -143 31 -58 86 -117 122 -132 36 -15 36
-19 8 -73 -16 -30 -23 -66 -26 -129 -4 -77 -2 -92 21 -142 35 -76 71 -121 127
-157 l47 -31 6 -71 c21 -281 195 -536 452 -661 131 -64 204 -81 360 -80 146 0
237 19 348 75 294 148 464 426 455 747 l-3 110 54 11 c82 16 135 46 190 107
121 132 128 319 17 442 -35 39 -36 42 -22 64 51 78 62 205 26 300 -42 112
-153 201 -268 215 -45 5 -52 9 -52 28 0 40 -60 143 -107 184 -96 85 -245 109
-355 59 l-56 -26 -33 34 c-56 57 -129 87 -223 91 -60 2 -93 -1 -128 -14z m191
-73 c48 -14 107 -57 132 -96 24 -40 54 -52 77 -31 89 78 237 79 337 3 38 -30
81 -107 90 -166 10 -61 20 -70 74 -70 66 0 114 -16 163 -53 112 -86 132 -254
44 -370 -15 -19 -26 -39 -26 -45 0 -6 22 -32 49 -57 60 -57 84 -111 83 -188 0
-113 -81 -222 -189 -253 -29 -9 -60 -14 -69 -12 -10 2 -25 28 -38 64 -73 200
-232 374 -422 461 -212 98 -467 100 -676 5 -139 -63 -283 -190 -362 -320 -45
-74 -92 -201 -102 -271 -4 -28 -10 -51 -14 -51 -19 0 -97 102 -109 141 -28 92
-12 181 42 245 42 50 34 82 -23 99 -54 17 -108 64 -136 120 -23 49 -26 64 -22
128 6 88 31 140 93 195 61 53 124 69 206 52 70 -15 89 -5 89 44 1 71 67 167
145 209 33 18 57 22 134 22 l94 0 22 50 c27 61 86 119 140 139 47 17 126 20
174 6z m145 -840 c128 -33 228 -91 331 -195 149 -148 215 -304 215 -511 1
-552 -580 -904 -1070 -648 -174 91 -299 244 -362 444 -19 64 -23 95 -23 210 1
121 4 143 29 215 84 244 285 432 524 490 88 21 264 19 356 -5z"/>
<path d="M1428 2108 c-30 -25 -108 -137 -108 -155 0 -22 18 -43 37 -43 7 0 21
10 33 22 l20 22 0 -90 c0 -88 8 -114 36 -114 33 0 44 31 44 118 0 81 1 85 16
64 17 -24 43 -29 62 -10 21 21 13 43 -40 114 -67 89 -73 93 -100 72z"/>
<path d="M1081 2091 c-6 -11 -11 -52 -11 -92 0 -61 -2 -70 -14 -59 -19 15 -56
9 -69 -11 -8 -13 1 -33 44 -93 72 -100 93 -107 136 -43 12 17 36 52 52 76 24
34 28 47 20 62 -12 23 -52 25 -70 2 -12 -14 -15 -4 -19 78 -5 93 -5 94 -32 97
-18 2 -30 -3 -37 -17z"/>
<path d="M1180 1499 c-223 -34 -425 -203 -507 -427 -34 -91 -43 -258 -19 -352
61 -244 252 -432 492 -486 138 -30 305 -9 435 57 59 29 157 113 206 176 92
117 134 243 134 398 0 112 -15 181 -61 276 -121 253 -399 400 -680 358z m65
-101 c7 -15 19 -23 35 -23 16 0 28 8 35 23 7 16 18 22 43 22 28 0 32 -3 27
-19 -6 -21 18 -51 40 -51 8 0 21 9 29 21 12 18 19 20 42 12 23 -8 28 -15 28
-44 1 -28 5 -35 25 -37 15 -2 30 3 37 12 10 15 14 14 37 -5 22 -17 25 -23 15
-38 -22 -36 17 -75 52 -53 14 9 22 7 36 -9 15 -16 15 -23 5 -43 -21 -38 -11
-61 27 -61 25 0 34 -5 43 -27 10 -24 9 -30 -11 -46 -38 -31 -15 -70 38 -63 7
1 12 -11 12 -31 0 -25 -6 -36 -22 -43 -34 -15 -35 -52 -4 -67 36 -16 38 -68 3
-68 -47 0 -63 -47 -25 -74 19 -13 20 -19 10 -41 -9 -20 -17 -25 -33 -20 -11 4
-26 1 -34 -5 -19 -16 -19 -57 -1 -67 12 -7 12 -11 -3 -29 -13 -16 -28 -21 -57
-20 -34 1 -39 -2 -42 -22 -2 -13 1 -29 7 -36 9 -10 5 -18 -15 -31 -24 -16 -27
-16 -45 1 -27 24 -53 8 -57 -35 -2 -23 -10 -35 -28 -42 -33 -12 -31 -12 -37
11 -7 27 -53 27 -67 0 -6 -11 -9 -24 -6 -29 5 -8 -25 -21 -50 -21 -7 0 -15 12
-18 26 -5 20 -12 25 -34 22 -16 -2 -31 -12 -37 -26 -5 -12 -15 -22 -22 -22
-24 0 -43 13 -43 29 0 41 -49 55 -73 21 -13 -18 -18 -19 -41 -8 -21 9 -26 17
-22 34 6 23 -15 54 -36 54 -6 0 -20 -8 -30 -17 -17 -16 -20 -16 -36 1 -10 10
-17 32 -17 54 0 36 -1 37 -37 37 -21 0 -44 7 -54 16 -15 15 -15 19 0 41 26 39
-1 77 -44 63 -11 -4 -20 3 -29 21 -10 23 -9 28 9 41 36 25 21 61 -32 77 -26 8
-23 49 5 61 16 7 22 18 22 40 0 23 -5 31 -22 33 -16 2 -23 10 -23 25 0 27 16
54 26 45 4 -4 15 -3 25 3 26 13 25 59 -1 66 -11 3 -20 6 -20 8 0 1 5 15 10 32
9 25 15 29 39 25 40 -6 61 30 35 59 -15 17 -16 20 0 44 14 22 19 23 36 13 31
-19 55 1 55 45 0 26 6 41 21 52 19 13 23 13 28 0 8 -22 53 -19 66 4 5 11 7 27
4 35 -4 10 3 20 22 28 22 10 28 10 32 0 14 -42 82 -31 82 13 0 21 5 25 28 25
19 0 30 -7 37 -22z"/>
<path d="M1236 1158 c-8 -29 -23 -84 -32 -123 -9 -38 -25 -85 -36 -103 -24
-40 -26 -114 -3 -148 48 -74 153 -85 211 -21 45 49 53 99 25 152 -12 23 -37
98 -54 166 l-32 124 -32 3 c-31 3 -33 1 -47 -50z m86 -265 c21 -39 21 -42 5
-67 -20 -30 -67 -36 -87 -11 -17 21 -16 62 3 83 8 9 18 33 22 52 11 53 18 58
27 20 5 -19 18 -54 30 -77z"/>
</g>
</svg>
