<?xml version="1.0" standalone="no"?>
<!DOCTYPE svg PUBLIC "-//W3C//DTD SVG 20010904//EN"
 "http://www.w3.org/TR/2001/REC-SVG-20010904/DTD/svg10.dtd">
<svg version="1.0" xmlns="http://www.w3.org/2000/svg"
 width="256.000000pt" height="256.000000pt" viewBox="0 0 256.000000 256.000000"
 preserveAspectRatio="xMidYMid meet">

<g transform="translate(0.000000,256.000000) scale(0.100000,-0.100000)"
fill="#fff" stroke="none">
<path d="M1012 2543 c-18 -9 -44 -30 -56 -47 -38 -50 -666 -1144 -702 -1221
-105 -227 -105 -491 -1 -734 39 -91 72 -118 106 -87 27 25 26 46 -3 104 -63
124 -92 292 -76 435 19 166 37 203 407 845 189 328 351 603 360 610 29 21 60
14 86 -20 13 -18 172 -289 353 -603 375 -651 391 -686 401 -873 20 -379 -224
-718 -593 -824 -64 -18 -104 -22 -209 -22 -152 0 -225 16 -358 77 -92 42 -107
43 -131 4 -18 -28 3 -49 94 -95 260 -130 586 -119 846 29 156 89 316 272 385
442 l31 75 71 35 c294 147 430 478 326 793 -11 34 -130 253 -267 490 -262 453
-277 474 -346 474 -67 0 -93 -26 -188 -190 -48 -84 -90 -155 -92 -157 -1 -2
-54 86 -116 194 -62 109 -125 211 -139 227 -50 55 -126 70 -189 39z m984 -638
c156 -270 251 -444 265 -489 62 -190 0 -418 -150 -558 -37 -35 -81 -70 -97
-80 l-29 -16 -1 151 c-1 135 -4 162 -28 240 -33 112 -42 128 -260 507 -99 173
-180 319 -178 324 4 12 147 260 179 309 14 23 30 37 40 35 9 -2 120 -182 259
-423z"/>
<path d="M759 1547 c-66 -35 -103 -100 -107 -192 -5 -95 26 -161 95 -205 83
-53 176 -38 245 38 77 86 78 221 2 311 -63 73 -152 91 -235 48z m139 -93 c91
-64 53 -235 -53 -234 -59 1 -95 50 -95 130 0 46 4 56 34 86 38 38 77 44 114
18z"/>
<path d="M1221 1513 c-12 -24 -330 -779 -346 -824 -11 -31 -11 -40 1 -58 20
-28 60 -27 78 2 23 36 356 835 356 855 0 10 -5 23 -12 30 -18 18 -66 15 -77
-5z"/>
<path d="M1256 996 c-86 -32 -140 -115 -140 -216 0 -76 24 -130 78 -177 125
-110 305 -26 323 150 16 161 -125 293 -261 243z m118 -114 c65 -59 57 -180
-15 -217 -40 -21 -63 -19 -98 11 -72 61 -55 195 29 227 22 8 62 -2 84 -21z"/>
<path d="M432 348 c-7 -7 -12 -24 -12 -38 0 -31 17 -50 45 -50 28 0 45 19 45
50 0 31 -17 50 -45 50 -12 0 -26 -5 -33 -12z"/>
</g>
</svg>
