<?xml version="1.0" standalone="no"?>
<!DOCTYPE svg PUBLIC "-//W3C//DTD SVG 20010904//EN"
 "http://www.w3.org/TR/2001/REC-SVG-20010904/DTD/svg10.dtd">
<svg version="1.0" xmlns="http://www.w3.org/2000/svg"
 width="256.000000pt" height="256.000000pt" viewBox="0 0 256.000000 256.000000"
 preserveAspectRatio="xMidYMid meet">

<g transform="translate(0.000000,256.000000) scale(0.100000,-0.100000)"
fill="#fff" stroke="none">
<path d="M1220 2304 c-231 -49 -438 -256 -483 -483 l-13 -64 -70 2 c-227 6
-432 -154 -484 -377 -16 -71 -8 -192 18 -264 52 -146 181 -262 337 -303 50
-12 145 -15 582 -15 l523 0 -55 -110 c-30 -60 -55 -121 -55 -135 0 -54 70 -92
121 -65 11 6 53 77 93 159 l75 148 74 6 c232 20 416 168 493 397 26 76 26 244
0 320 -61 182 -185 309 -359 370 -48 17 -55 24 -92 88 -102 178 -248 287 -438
326 -92 19 -180 19 -267 0z m253 -159 c136 -35 252 -127 312 -248 19 -38 35
-75 35 -82 0 -23 46 -53 99 -64 125 -26 227 -109 284 -229 29 -61 32 -76 32
-163 0 -90 -2 -99 -37 -171 -45 -91 -103 -147 -196 -191 l-67 -32 -690 0 -690
0 -50 24 c-63 32 -131 99 -158 159 -31 66 -31 198 0 264 85 186 324 244 488
120 59 -45 112 -137 121 -208 8 -72 22 -101 55 -114 58 -24 109 20 109 93 0
51 -28 145 -61 208 -29 54 -120 152 -163 176 -19 10 -19 15 -8 73 50 273 324
453 585 385z"/>
<path d="M757 629 c-23 -13 -117 -201 -117 -234 0 -54 70 -92 121 -65 24 13
119 200 119 235 0 55 -73 93 -123 64z"/>
<path d="M1157 469 c-23 -13 -117 -201 -117 -234 0 -54 70 -92 121 -65 24 13
119 200 119 235 0 55 -73 93 -123 64z"/>
</g>
</svg>
