<?xml version="1.0" standalone="no"?>
<!DOCTYPE svg PUBLIC "-//W3C//DTD SVG 20010904//EN"
 "http://www.w3.org/TR/2001/REC-SVG-20010904/DTD/svg10.dtd">
<svg version="1.0" xmlns="http://www.w3.org/2000/svg"
 width="256.000000pt" height="256.000000pt" viewBox="0 0 256.000000 256.000000"
 preserveAspectRatio="xMidYMid meet">

<g transform="translate(0.000000,256.000000) scale(0.100000,-0.100000)"
fill="#fff" stroke="none">
<path d="M938 2330 c-162 -28 -288 -156 -319 -324 -12 -67 -3 -100 31 -111 36
-12 68 18 75 72 25 176 169 283 335 249 256 -53 297 -397 62 -517 l-47 -24
-520 -3 c-462 -2 -521 -4 -537 -19 -23 -21 -23 -55 1 -77 17 -15 62 -16 547
-14 l529 3 67 32 c200 94 284 332 186 527 -28 54 -102 131 -157 162 -42 24
-155 55 -191 53 -8 -1 -36 -5 -62 -9z"/>
<path d="M1994 2220 c-205 -30 -367 -176 -419 -377 -21 -79 -19 -136 3 -156
39 -36 92 -7 92 49 0 54 29 144 64 199 71 110 189 175 320 175 95 0 161 -21
233 -73 105 -78 156 -180 156 -312 0 -88 -21 -157 -70 -228 -33 -48 -129 -121
-181 -139 -29 -10 -283 -14 -1100 -18 -1038 -5 -1064 -5 -1078 -24 -18 -25
-18 -47 0 -72 14 -19 37 -19 1068 -19 985 0 1057 1 1109 18 181 57 309 191
353 368 20 83 20 145 0 228 -43 175 -180 319 -345 364 -72 20 -143 26 -205 17z"/>
<path d="M17 982 c-22 -24 -21 -55 1 -75 17 -16 100 -17 995 -17 959 0 977 0
1031 -20 109 -41 177 -139 178 -254 1 -158 -120 -279 -278 -278 -79 1 -139 26
-193 82 -42 44 -81 130 -81 180 0 31 -30 70 -53 70 -31 0 -57 -31 -57 -68 0
-89 45 -193 111 -259 154 -155 396 -157 549 -3 180 179 141 478 -77 607 -92
54 -70 53 -1129 53 -938 0 -982 -1 -997 -18z"/>
</g>
</svg>
